  0
SECTION
  2
HEADER
  9
$ACADVER
  1
AC1014
  9
$ACADMAINTVER
 70
     9
  9
$DWGCODEPAGE
  3
ANSI_1252
  9
$INSBASE
 10
0.0
 20
0.0
 30
0.0
  9
$EXTMIN
 10
1.000000000000000E+20
 20
1.000000000000000E+20
 30
1.000000000000000E+20
  9
$EXTMAX
 10
-1.000000000000000E+20
 20
-1.000000000000000E+20
 30
-1.000000000000000E+20
  9
$LIMMIN
 10
0.0
 20
0.0
  9
$LIMMAX
 10
12.0
 20
9.0
  9
$ORTHOMODE
 70
     0
  9
$REGENMODE
 70
     1
  9
$FILLMODE
 70
     1
  9
$QTEXTMODE
 70
     0
  9
$MIRRTEXT
 70
     1
  9
$DRAGMODE
 70
     2
  9
$LTSCALE
 40
1.0
  9
$OSMODE
 70
    37
  9
$ATTMODE
 70
     1
  9
$TEXTSIZE
 40
0.2
  9
$TRACEWID
 40
0.05
  9
$TEXTSTYLE
  7
STANDARD
  9
$CLAYER
  8
0
  9
$CELTYPE
  6
BYLAYER
  9
$CECOLOR
 62
   256
  9
$CELTSCALE
 40
1.0
  9
$DELOBJ
 70
     1
  9
$DISPSILH
 70
     0
  9
$DIMSCALE
 40
1.0
  9
$DIMASZ
 40
0.18
  9
$DIMEXO
 40
0.0625
  9
$DIMDLI
 40
0.38
  9
$DIMRND
 40
0.0
  9
$DIMDLE
 40
0.0
  9
$DIMEXE
 40
0.18
  9
$DIMTP
 40
0.0
  9
$DIMTM
 40
0.0
  9
$DIMTXT
 40
0.18
  9
$DIMCEN
 40
0.09
  9
$DIMTSZ
 40
0.0
  9
$DIMTOL
 70
     0
  9
$DIMLIM
 70
     0
  9
$DIMTIH
 70
     1
  9
$DIMTOH
 70
     1
  9
$DIMSE1
 70
     0
  9
$DIMSE2
 70
     0
  9
$DIMTAD
 70
     0
  9
$DIMZIN
 70
     0
  9
$DIMBLK
  1

  9
$DIMASO
 70
     1
  9
$DIMSHO
 70
     1
  9
$DIMPOST
  1

  9
$DIMAPOST
  1

  9
$DIMALT
 70
     0
  9
$DIMALTD
 70
     2
  9
$DIMALTF
 40
25.4
  9
$DIMLFAC
 40
1.0
  9
$DIMTOFL
 70
     0
  9
$DIMTVP
 40
0.0
  9
$DIMTIX
 70
     0
  9
$DIMSOXD
 70
     0
  9
$DIMSAH
 70
     0
  9
$DIMBLK1
  1

  9
$DIMBLK2
  1

  9
$DIMSTYLE
  2
STANDARD
  9
$DIMCLRD
 70
     0
  9
$DIMCLRE
 70
     0
  9
$DIMCLRT
 70
     0
  9
$DIMTFAC
 40
1.0
  9
$DIMGAP
 40
0.09
  9
$DIMJUST
 70
     0
  9
$DIMSD1
 70
     0
  9
$DIMSD2
 70
     0
  9
$DIMTOLJ
 70
     1
  9
$DIMTZIN
 70
     0
  9
$DIMALTZ
 70
     0
  9
$DIMALTTZ
 70
     0
  9
$DIMFIT
 70
     3
  9
$DIMUPT
 70
     0
  9
$DIMUNIT
 70
     2
  9
$DIMDEC
 70
     4
  9
$DIMTDEC
 70
     4
  9
$DIMALTU
 70
     2
  9
$DIMALTTD
 70
     2
  9
$DIMTXSTY
  7
STANDARD
  9
$DIMAUNIT
 70
     0
  9
$LUNITS
 70
     2
  9
$LUPREC
 70
     4
  9
$SKETCHINC
 40
0.1
  9
$FILLETRAD
 40
0.5
  9
$AUNITS
 70
     0
  9
$AUPREC
 70
     0
  9
$MENU
  1
.
  9
$ELEVATION
 40
0.0
  9
$PELEVATION
 40
0.0
  9
$THICKNESS
 40
0.0
  9
$LIMCHECK
 70
     0
  9
$CHAMFERA
 40
0.5
  9
$CHAMFERB
 40
0.5
  9
$CHAMFERC
 40
1.0
  9
$CHAMFERD
 40
0.0
  9
$SKPOLY
 70
     0
  9
$TDCREATE
 40
2459207.859736261
  9
$TDUPDATE
 40
2459207.859736285
  9
$TDINDWG
 40
0.0000000116
  9
$TDUSRTIMER
 40
0.0000000116
  9
$USRTIMER
 70
     1
  9
$ANGBASE
 50
0.0
  9
$ANGDIR
 70
     0
  9
$PDMODE
 70
     0
  9
$PDSIZE
 40
0.0
  9
$PLINEWID
 40
0.0
  9
$COORDS
 70
     1
  9
$SPLFRAME
 70
     0
  9
$SPLINETYPE
 70
     6
  9
$SPLINESEGS
 70
     8
  9
$ATTDIA
 70
     0
  9
$ATTREQ
 70
     1
  9
$HANDLING
 70
     1
  9
$HANDSEED
  5
B8
  9
$SURFTAB1
 70
     6
  9
$SURFTAB2
 70
     6
  9
$SURFTYPE
 70
     6
  9
$SURFU
 70
     6
  9
$SURFV
 70
     6
  9
$UCSNAME
  2

  9
$UCSORG
 10
0.0
 20
0.0
 30
0.0
  9
$UCSXDIR
 10
1.0
 20
0.0
 30
0.0
  9
$UCSYDIR
 10
0.0
 20
1.0
 30
0.0
  9
$PUCSNAME
  2

  9
$PUCSORG
 10
0.0
 20
0.0
 30
0.0
  9
$PUCSXDIR
 10
1.0
 20
0.0
 30
0.0
  9
$PUCSYDIR
 10
0.0
 20
1.0
 30
0.0
  9
$USERI1
 70
     0
  9
$USERI2
 70
     0
  9
$USERI3
 70
     0
  9
$USERI4
 70
     0
  9
$USERI5
 70
     0
  9
$USERR1
 40
0.0
  9
$USERR2
 40
0.0
  9
$USERR3
 40
0.0
  9
$USERR4
 40
0.0
  9
$USERR5
 40
0.0
  9
$WORLDVIEW
 70
     1
  9
$SHADEDGE
 70
     3
  9
$SHADEDIF
 70
    70
  9
$TILEMODE
 70
     1
  9
$MAXACTVP
 70
    64
  9
$PINSBASE
 10
0.0
 20
0.0
 30
0.0
  9
$PLIMCHECK
 70
     0
  9
$PEXTMIN
 10
1.000000000000000E+20
 20
1.000000000000000E+20
 30
1.000000000000000E+20
  9
$PEXTMAX
 10
-1.000000000000000E+20
 20
-1.000000000000000E+20
 30
-1.000000000000000E+20
  9
$PLIMMIN
 10
0.0
 20
0.0
  9
$PLIMMAX
 10
12.0
 20
9.0
  9
$UNITMODE
 70
     0
  9
$VISRETAIN
 70
     1
  9
$PLINEGEN
 70
     0
  9
$PSLTSCALE
 70
     1
  9
$TREEDEPTH
 70
  3020
  9
$PICKSTYLE
 70
     1
  9
$CMLSTYLE
  2
STANDARD
  9
$CMLJUST
 70
     0
  9
$CMLSCALE
 40
1.0
  9
$PROXYGRAPHICS
 70
     1
  9
$MEASUREMENT
 70
     0
  0
ENDSEC
  0
SECTION
  2
CLASSES
  0
CLASS
  1
ACDBDICTIONARYWDFLT
  2
AcDbDictionaryWithDefault
  3
ObjectDBX Classes
 90
        0
280
     0
281
     0
  0
CLASS
  1
VISUALSTYLE
  2
AcDbVisualStyle
  3
ObjectDBX Classes
 90
     4095
280
     0
281
     0
  0
CLASS
  1
MATERIAL
  2
AcDbMaterial
  3
ObjectDBX Classes
 90
     1153
280
     0
281
     0
  0
CLASS
  1
SUN
  2
AcDbSun
  3
SCENEOE
 90
     1024
280
     0
281
     0
  0
CLASS
  1
DICTIONARYVAR
  2
AcDbDictionaryVar
  3
ObjectDBX Classes
 90
        0
280
     0
281
     0
  0
CLASS
  1
XRECORD
  2
AcDbXrecord
  3
AutoCAD 2000
 90
        0
280
     0
281
     0
  0
CLASS
  1
LWPOLYLINE
  2
AcDbPolyline
  3
AutoCAD 2000
 90
        0
280
     0
281
     1
  0
CLASS
  1
HATCH
  2
AcDbHatch
  3
AutoCAD 2000
 90
        0
280
     0
281
     1
  0
CLASS
  1
ACDBPLACEHOLDER
  2
AcDbPlaceHolder
  3
ObjectDBX Classes
 90
        0
280
     0
281
     0
  0
CLASS
  1
LAYOUT
  2
AcDbLayout
  3
ObjectDBX Classes
 90
        0
280
     0
281
     0
  0
ENDSEC
  0
SECTION
  2
TABLES
  0
TABLE
  2
VPORT
  5
8
330
0
100
AcDbSymbolTable
 70
     1
  0
VPORT
  5
29
330
8
100
AcDbSymbolTableRecord
100
AcDbViewportTableRecord
  2
*ACTIVE
 70
     0
 10
0.0
 20
0.0
 11
1.0
 21
1.0
 12
0.0
 22
0.0
 13
0.0
 23
0.0
 14
0.5
 24
0.5
 15
0.5
 25
0.5
 16
0.0
 26
0.0
 36
1.0
 17
107.9499999730125
 27
-139.699999965075
 37
0.0
 40
279.39999993015
 41
0.7727272727272728
 42
50.0
 43
0.0
 44
0.0
 50
0.0
 51
0.0
 71
     0
 72
   100
 73
     1
 74
     3
 75
     0
 76
     0
 77
     0
 78
     0
  0
ENDTAB
  0
TABLE
  2
LTYPE
  5
5
330
0
100
AcDbSymbolTable
 70
     1
  0
LTYPE
  5
14
330
5
100
AcDbSymbolTableRecord
100
AcDbLinetypeTableRecord
  2
BYBLOCK
 70
     0
  3

 72
    65
 73
     0
 40
0.0
  0
LTYPE
  5
15
330
5
100
AcDbSymbolTableRecord
100
AcDbLinetypeTableRecord
  2
BYLAYER
 70
     0
  3

 72
    65
 73
     0
 40
0.0
  0
LTYPE
  5
16
330
5
100
AcDbSymbolTableRecord
100
AcDbLinetypeTableRecord
  2
CONTINUOUS
 70
     0
  3
Solid line
 72
    65
 73
     0
 40
0.0
  0
ENDTAB
  0
TABLE
  2
LAYER
  5
2
330
0
100
AcDbSymbolTable
 70
     2
  0
LAYER
  5
10
330
2
100
AcDbSymbolTableRecord
100
AcDbLayerTableRecord
  2
0
 70
     0
 62
     7
  6
CONTINUOUS
  0
LAYER
  5
40
330
2
100
AcDbSymbolTableRecord
100
AcDbLayerTableRecord
  2
LAYER_1
 70
     0
 62
     7
  6
CONTINUOUS
  0
ENDTAB
  0
TABLE
  2
STYLE
  5
3
330
0
100
AcDbSymbolTable
 70
     1
  0
STYLE
  5
11
330
3
100
AcDbSymbolTableRecord
100
AcDbTextStyleTableRecord
  2
STANDARD
 70
     0
 40
0.0
 41
1.0
 50
0.0
 71
     0
 42
0.2
  3
txt
  4

  0
ENDTAB
  0
TABLE
  2
VIEW
  5
6
330
0
100
AcDbSymbolTable
 70
     0
  0
ENDTAB
  0
TABLE
  2
UCS
  5
7
330
0
100
AcDbSymbolTable
 70
     0
  0
ENDTAB
  0
TABLE
  2
APPID
  5
9
330
0
100
AcDbSymbolTable
 70
     1
  0
APPID
  5
12
330
9
100
AcDbSymbolTableRecord
100
AcDbRegAppTableRecord
  2
ACAD
 70
     0
  0
ENDTAB
  0
TABLE
  2
DIMSTYLE
  5
A
330
0
100
AcDbSymbolTable
 70
     1
  0
DIMSTYLE
105
27
330
A
100
AcDbSymbolTableRecord
100
AcDbDimStyleTableRecord
  2
STANDARD
 70
     0
  3

  4

  5

  6

  7

 40
1.0
 41
0.18
 42
0.0625
 43
0.38
 44
0.18
 45
0.0
 46
0.0
 47
0.0
 48
0.0
140
0.18
141
0.09
142
0.0
143
25.4
144
1.0
145
0.0
146
1.0
147
0.09
 71
     0
 72
     0
 73
     1
 74
     1
 75
     0
 76
     0
 77
     0
 78
     0
170
     0
171
     2
172
     0
173
     0
174
     0
175
     0
176
     0
177
     0
178
     0
270
     2
271
     4
272
     4
273
     2
274
     2
340
11
275
     0
280
     0
281
     0
282
     0
283
     1
284
     0
285
     0
286
     0
287
     3
288
     0
  0
ENDTAB
  0
TABLE
  2
BLOCK_RECORD
  5
1
330
0
100
AcDbSymbolTable
 70
     4
  0
BLOCK_RECORD
  5
1F
330
1
100
AcDbSymbolTableRecord
100
AcDbBlockTableRecord
  2
*MODEL_SPACE
  0
BLOCK_RECORD
  5
1B
330
1
100
AcDbSymbolTableRecord
100
AcDbBlockTableRecord
  2
*PAPER_SPACE
  0
BLOCK_RECORD
  5
70
330
1
100
AcDbSymbolTableRecord
100
AcDbBlockTableRecord
  2
BLOCK_2
  0
BLOCK_RECORD
  5
75
330
1
100
AcDbSymbolTableRecord
100
AcDbBlockTableRecord
  2
BLOCK_3
  0
BLOCK_RECORD
  5
7A
330
1
100
AcDbSymbolTableRecord
100
AcDbBlockTableRecord
  2
BLOCK_4
  0
ENDTAB
  0
ENDSEC
  0
SECTION
  2
BLOCKS
  0
BLOCK
  5
20
330
1F
100
AcDbEntity
  8
0
100
AcDbBlockBegin
  2
*MODEL_SPACE
 70
     0
 10
0.0
 20
0.0
 30
0.0
  3
*MODEL_SPACE
  1

  0
ENDBLK
  5
21
330
1F
100
AcDbEntity
  8
0
100
AcDbBlockEnd
  0
BLOCK
  5
1C
330
1B
100
AcDbEntity
 67
     1
  8
0
100
AcDbBlockBegin
  2
*PAPER_SPACE
 70
     0
 10
0.0
 20
0.0
 30
0.0
  3
*PAPER_SPACE
  1

  0
ENDBLK
  5
1D
330
1B
100
AcDbEntity
 67
     1
  8
0
100
AcDbBlockEnd
  0
BLOCK
  5
72
330
70
100
AcDbEntity
  8
0
100
AcDbBlockBegin
  2
BLOCK_2
 70
     0
 10
0.0
 20
0.0
 30
0.0
  3
BLOCK_2
  1

  0
SPLINE
  5
74
330
70
100
AcDbEntity
  8
LAYER_1
 62
     7
100
AcDbSpline
210
0.0
220
0.0
230
1.0
 70
    11
 71
     3
 72
    20
 73
    16
 74
     0
 42
0.0000000001
 43
0.0000000001
 12
1.0
 22
0.0
 32
0.0
 13
1.0
 23
0.0
 33
0.0
 40
0.0
 40
0.0
 40
0.0
 40
0.0
 40
1.0
 40
1.0
 40
1.0
 40
2.0
 40
2.0
 40
2.0
 40
3.0
 40
3.0
 40
3.0
 40
4.0
 40
4.0
 40
4.0
 40
5.0
 40
5.0
 40
5.0
 40
5.0
 10
112.5763892567374
 20
-163.8763894201636
 30
0.0
 10
112.5763892567374
 20
-166.610198931827
 30
0.0
 10
110.3601987684001
 20
-168.8263894201642
 30
0.0
 10
107.6263892567377
 20
-168.8263894201642
 30
0.0
 10
104.8925797450756
 20
-168.8263894201642
 30
0.0
 10
102.6763892567377
 20
-166.610198931827
 30
0.0
 10
102.6763892567377
 20
-163.8763894201636
 30
0.0
 10
102.6763892567377
 20
-161.1425799085015
 30
0.0
 10
104.8925797450756
 20
-158.9263894201642
 30
0.0
 10
107.6263892567377
 20
-158.9263894201642
 30
0.0
 10
110.3601987684001
 20
-158.9263894201642
 30
0.0
 10
112.5763892567374
 20
-161.1425799085015
 30
0.0
 10
112.5763892567374
 20
-163.8763894201636
 30
0.0
 10
112.5763892567374
 20
-163.8763894201636
 30
0.0
 10
112.5763892567374
 20
-163.8763894201636
 30
0.0
 10
112.5763892567374
 20
-163.8763894201636
 30
0.0
  0
ENDBLK
  5
73
330
70
100
AcDbEntity
  8
0
100
AcDbBlockEnd
  0
BLOCK
  5
77
330
75
100
AcDbEntity
  8
0
100
AcDbBlockBegin
  2
BLOCK_3
 70
     0
 10
0.0
 20
0.0
 30
0.0
  3
BLOCK_3
  1

  0
SPLINE
  5
79
330
75
100
AcDbEntity
  8
LAYER_1
 62
     7
100
AcDbSpline
210
0.0
220
0.0
230
1.0
 70
    11
 71
     3
 72
    20
 73
    16
 74
     0
 42
0.0000000001
 43
0.0000000001
 12
1.0
 22
0.0
 32
0.0
 13
1.0
 23
0.0
 33
0.0
 40
0.0
 40
0.0
 40
0.0
 40
0.0
 40
1.0
 40
1.0
 40
1.0
 40
2.0
 40
2.0
 40
2.0
 40
3.0
 40
3.0
 40
3.0
 40
4.0
 40
4.0
 40
4.0
 40
5.0
 40
5.0
 40
5.0
 40
5.0
 10
118.6263892567378
 20
-137.8763894201636
 30
0.0
 10
118.6263892567378
 20
-143.9515216683025
 30
0.0
 10
113.7015215048766
 20
-148.8763894201637
 30
0.0
 10
107.6263892567377
 20
-148.8763894201637
 30
0.0
 10
101.5512570085991
 20
-148.8763894201637
 30
0.0
 10
96.62638925673795
 20
-143.9515216683025
 30
0.0
 10
96.62638925673795
 20
-137.8763894201636
 30
0.0
 10
96.62638925673795
 20
-131.801257172025
 30
0.0
 10
101.5512570085991
 20
-126.8763894201639
 30
0.0
 10
107.6263892567377
 20
-126.8763894201639
 30
0.0
 10
113.7015215048766
 20
-126.8763894201639
 30
0.0
 10
118.6263892567378
 20
-131.801257172025
 30
0.0
 10
118.6263892567378
 20
-137.8763894201636
 30
0.0
 10
118.6263892567378
 20
-137.8763894201636
 30
0.0
 10
118.6263892567378
 20
-137.8763894201636
 30
0.0
 10
118.6263892567378
 20
-137.8763894201636
 30
0.0
  0
ENDBLK
  5
78
330
75
100
AcDbEntity
  8
0
100
AcDbBlockEnd
  0
BLOCK
  5
7C
330
7A
100
AcDbEntity
  8
0
100
AcDbBlockBegin
  2
BLOCK_4
 70
     0
 10
0.0
 20
0.0
 30
0.0
  3
BLOCK_4
  1

  0
SPLINE
  5
7E
330
7A
100
AcDbEntity
  8
LAYER_1
 62
     7
100
AcDbSpline
210
0.0
220
0.0
230
1.0
 70
    11
 71
     3
 72
    20
 73
    16
 74
     0
 42
0.0000000001
 43
0.0000000001
 12
1.0
 22
0.0
 32
0.0
 13
1.0
 23
0.0
 33
0.0
 40
0.0
 40
0.0
 40
0.0
 40
0.0
 40
1.0
 40
1.0
 40
1.0
 40
2.0
 40
2.0
 40
2.0
 40
3.0
 40
3.0
 40
3.0
 40
4.0
 40
4.0
 40
4.0
 40
5.0
 40
5.0
 40
5.0
 40
5.0
 10
118.6263892567378
 20
-137.8763894201636
 30
0.0
 10
118.6263892567378
 20
-143.9515216683025
 30
0.0
 10
113.7015215048766
 20
-148.8763894201637
 30
0.0
 10
107.6263892567377
 20
-148.8763894201637
 30
0.0
 10
101.5512570085991
 20
-148.8763894201637
 30
0.0
 10
96.62638925673795
 20
-143.9515216683025
 30
0.0
 10
96.62638925673795
 20
-137.8763894201636
 30
0.0
 10
96.62638925673795
 20
-131.801257172025
 30
0.0
 10
101.5512570085991
 20
-126.8763894201639
 30
0.0
 10
107.6263892567377
 20
-126.8763894201639
 30
0.0
 10
113.7015215048766
 20
-126.8763894201639
 30
0.0
 10
118.6263892567378
 20
-131.801257172025
 30
0.0
 10
118.6263892567378
 20
-137.8763894201636
 30
0.0
 10
118.6263892567378
 20
-137.8763894201636
 30
0.0
 10
118.6263892567378
 20
-137.8763894201636
 30
0.0
 10
118.6263892567378
 20
-137.8763894201636
 30
0.0
  0
ENDBLK
  5
7D
330
7A
100
AcDbEntity
  8
0
100
AcDbBlockEnd
  0
ENDSEC
  0
SECTION
  2
ENTITIES
  0
POLYLINE
  5
41
330
1F
100
AcDbEntity
  8
LAYER_1
 62
     7
100
AcDb2dPolyline
 66
     1
 10
0.0
 20
0.0
 30
0.0
  0
VERTEX
  5
42
330
41
100
AcDbEntity
  8
LAYER_1
 62
     7
100
AcDbVertex
100
AcDb2dVertex
 10
107.626389256738
 20
-126.4861927149188
 30
0.0
  0
VERTEX
  5
43
330
41
100
AcDbEntity
  8
LAYER_1
 62
     7
100
AcDbVertex
100
AcDb2dVertex
 10
107.6263892567377
 20
-126.8763894201639
 30
0.0
  0
SEQEND
  5
44
330
41
100
AcDbEntity
  8
LAYER_1
 62
     7
  0
POLYLINE
  5
45
330
1F
100
AcDbEntity
  8
LAYER_1
 62
     7
100
AcDb2dPolyline
 66
     1
 10
0.0
 20
0.0
 30
0.0
  0
VERTEX
  5
46
330
45
100
AcDbEntity
  8
LAYER_1
 62
     7
100
AcDbVertex
100
AcDb2dVertex
 10
96.2552070126957
 20
-137.8763894201639
 30
0.0
  0
VERTEX
  5
47
330
45
100
AcDbEntity
  8
LAYER_1
 62
     7
100
AcDbVertex
100
AcDb2dVertex
 10
96.62638925673795
 20
-137.8763894201636
 30
0.0
  0
SEQEND
  5
48
330
45
100
AcDbEntity
  8
LAYER_1
 62
     7
  0
POLYLINE
  5
49
330
1F
100
AcDbEntity
  8
LAYER_1
 62
     7
100
AcDb2dPolyline
 66
     1
 10
0.0
 20
0.0
 30
0.0
  0
VERTEX
  5
4A
330
49
100
AcDbEntity
  8
LAYER_1
 62
     7
100
AcDbVertex
100
AcDb2dVertex
 10
99.42019565308232
 20
-145.9057998595614
 30
0.0
  0
VERTEX
  5
4B
330
49
100
AcDbEntity
  8
LAYER_1
 62
     7
100
AcDbVertex
100
AcDb2dVertex
 10
100.1096639046602
 20
-145.9057998595614
 30
0.0
  0
SEQEND
  5
4C
330
49
100
AcDbEntity
  8
LAYER_1
 62
     7
  0
POLYLINE
  5
4D
330
1F
100
AcDbEntity
  8
LAYER_1
 62
     7
100
AcDb2dPolyline
 66
     1
 10
0.0
 20
0.0
 30
0.0
  0
VERTEX
  5
4E
330
4D
100
AcDbEntity
  8
LAYER_1
 62
     7
100
AcDbVertex
100
AcDb2dVertex
 10
115.8654428189237
 20
-145.9057998593785
 30
0.0
  0
VERTEX
  5
4F
330
4D
100
AcDbEntity
  8
LAYER_1
 62
     7
100
AcDbVertex
100
AcDb2dVertex
 10
115.143126308453
 20
-145.9057998595614
 30
0.0
  0
SEQEND
  5
50
330
4D
100
AcDbEntity
  8
LAYER_1
 62
     7
  0
POLYLINE
  5
51
330
1F
100
AcDbEntity
  8
LAYER_1
 62
     7
100
AcDb2dPolyline
 66
     1
 10
0.0
 20
0.0
 30
0.0
  0
VERTEX
  5
52
330
51
100
AcDbEntity
  8
LAYER_1
 62
     7
100
AcDbVertex
100
AcDb2dVertex
 10
115.7357451072482
 20
-130.0886028125585
 30
0.0
  0
VERTEX
  5
53
330
51
100
AcDbEntity
  8
LAYER_1
 62
     7
100
AcDbVertex
100
AcDb2dVertex
 10
115.3947868049113
 20
-130.0886028127247
 30
0.0
  0
SEQEND
  5
54
330
51
100
AcDbEntity
  8
LAYER_1
 62
     7
  0
POLYLINE
  5
55
330
1F
100
AcDbEntity
  8
LAYER_1
 62
     7
100
AcDb2dPolyline
 66
     1
 10
0.0
 20
0.0
 30
0.0
  0
VERTEX
  5
56
330
55
100
AcDbEntity
  8
LAYER_1
 62
     7
100
AcDbVertex
100
AcDb2dVertex
 10
99.54989336546784
 20
-130.0886028127472
 30
0.0
  0
VERTEX
  5
57
330
55
100
AcDbEntity
  8
LAYER_1
 62
     7
100
AcDbVertex
100
AcDb2dVertex
 10
99.85799259353733
 20
-130.0886028125585
 30
0.0
  0
SEQEND
  5
58
330
55
100
AcDbEntity
  8
LAYER_1
 62
     7
  0
POLYLINE
  5
59
330
1F
100
AcDbEntity
  8
LAYER_1
 62
     7
100
AcDb2dPolyline
 66
     1
 10
0.0
 20
0.0
 30
0.0
  0
VERTEX
  5
5A
330
59
100
AcDbEntity
  8
LAYER_1
 62
     7
100
AcDbVertex
100
AcDb2dVertex
 10
119.0304314596706
 20
-137.8763894201232
 30
0.0
  0
VERTEX
  5
5B
330
59
100
AcDbEntity
  8
LAYER_1
 62
     7
100
AcDbVertex
100
AcDb2dVertex
 10
118.6263892567378
 20
-137.8763894201636
 30
0.0
  0
SEQEND
  5
5C
330
59
100
AcDbEntity
  8
LAYER_1
 62
     7
  0
SPLINE
  5
5D
330
1F
100
AcDbEntity
  8
LAYER_1
 62
     7
100
AcDbSpline
210
0.0
220
0.0
230
1.0
 70
     8
 71
     3
 72
    26
 73
    22
 74
     0
 42
0.0000000001
 43
0.0000000001
 12
1.0
 22
0.0
 32
0.0
 13
1.0
 23
0.0
 33
0.0
 40
0.0
 40
0.0
 40
0.0
 40
0.0
 40
1.0
 40
1.0
 40
1.0
 40
2.0
 40
2.0
 40
2.0
 40
3.0
 40
3.0
 40
3.0
 40
4.0
 40
4.0
 40
4.0
 40
5.0
 40
5.0
 40
5.0
 40
6.0
 40
6.0
 40
6.0
 40
7.0
 40
7.0
 40
7.0
 40
7.0
 10
119.4120021025807
 20
-122.3008162053067
 30
0.0
 10
119.4120021025807
 20
-122.3008162053067
 30
0.0
 10
120.1226897115118
 20
-122.3008162053388
 30
0.0
 10
120.1226897115118
 20
-122.3008162053388
 30
0.0
 10
120.1226897115118
 20
-122.3008162053388
 30
0.0
 10
120.1175576579599
 20
-122.3008162053384
 30
0.0
 10
120.1175576579599
 20
-122.3008162053384
 30
0.0
 10
120.1175576579599
 20
-122.3008162053384
 30
0.0
 10
120.1226897115118
 20
-122.3008162053388
 30
0.0
 10
120.1226897115118
 20
-122.3008162053388
 30
0.0
 10
120.7719718151136
 20
-122.3008162053692
 30
0.0
 10
121.2983189567276
 20
-122.8271633470301
 30
0.0
 10
121.2983189566981
 20
-123.476445450631
 30
0.0
 10
121.2983189566981
 20
-123.476445450631
 30
0.0
 10
121.2983189561052
 20
-136.7007601749853
 30
0.0
 10
121.2983189561052
 20
-136.7007601749853
 30
0.0
 10
121.2983189560757
 20
-137.3500422785859
 30
0.0
 10
120.7719718144135
 20
-137.8763894202011
 30
0.0
 10
120.1226897108123
 20
-137.8763894201723
 30
0.0
 10
120.1226897108123
 20
-137.8763894201723
 30
0.0
 10
119.0304314596706
 20
-137.8763894201232
 30
0.0
 10
119.0304314596706
 20
-137.8763894201232
 30
0.0
  0
SPLINE
  5
5E
330
1F
100
AcDbEntity
  8
LAYER_1
 62
     7
100
AcDbSpline
210
0.0
220
0.0
230
1.0
 70
     8
 71
     3
 72
    23
 73
    19
 74
     0
 42
0.0000000001
 43
0.0000000001
 12
1.0
 22
0.0
 32
0.0
 13
1.0
 23
0.0
 33
0.0
 40
0.0
 40
0.0
 40
0.0
 40
0.0
 40
1.0
 40
1.0
 40
1.0
 40
2.0
 40
2.0
 40
2.0
 40
3.0
 40
3.0
 40
3.0
 40
4.0
 40
4.0
 40
4.0
 40
5.0
 40
5.0
 40
5.0
 40
6.0
 40
6.0
 40
6.0
 40
6.0
 10
119.4120021026924
 20
-119.8209959444886
 30
0.0
 10
119.4120021026924
 20
-119.8209959444886
 30
0.0
 10
120.3892990281146
 20
-119.8209959445325
 30
0.0
 10
120.3892990281146
 20
-119.8209959445325
 30
0.0
 10
120.3892990281146
 20
-119.8209959445325
 30
0.0
 10
120.4639683063082
 20
-119.8209959445357
 30
0.0
 10
120.4639683063082
 20
-119.8209959445357
 30
0.0
 10
121.3389810088905
 20
-119.8209959445752
 30
0.0
 10
122.0483189566434
 20
-120.5303338923917
 30
0.0
 10
122.0483189566043
 20
-121.405346594974
 30
0.0
 10
122.0483189566043
 20
-121.405346594974
 30
0.0
 10
122.048318955575
 20
-144.3214492092897
 30
0.0
 10
122.048318955575
 20
-144.3214492092897
 30
0.0
 10
122.0483189555359
 20
-145.1964619118713
 30
0.0
 10
121.3389810077194
 20
-145.9057998596242
 30
0.0
 10
120.4639683051371
 20
-145.9057998595851
 30
0.0
 10
120.4639683051371
 20
-145.9057998595851
 30
0.0
 10
115.8654428189237
 20
-145.9057998593785
 30
0.0
 10
115.8654428189237
 20
-145.9057998593785
 30
0.0
  0
SPLINE
  5
5F
330
1F
100
AcDbEntity
  8
LAYER_1
 62
     7
100
AcDbSpline
210
0.0
220
0.0
230
1.0
 70
     8
 71
     3
 72
    14
 73
    10
 74
     0
 42
0.0000000001
 43
0.0000000001
 12
1.0
 22
0.0
 32
0.0
 13
1.0
 23
0.0
 33
0.0
 40
0.0
 40
0.0
 40
0.0
 40
0.0
 40
1.0
 40
1.0
 40
1.0
 40
2.0
 40
2.0
 40
2.0
 40
3.0
 40
3.0
 40
3.0
 40
3.0
 10
98.56937865983078
 20
-157.3503260004895
 30
0.0
 10
98.56937865983078
 20
-157.3503260004895
 30
0.0
 10
98.56937865983078
 20
-158.3239218996856
 30
0.0
 10
98.56937865983078
 20
-158.3239218996856
 30
0.0
 10
98.56937865983078
 20
-159.4575862383828
 30
0.0
 10
99.48839518737994
 20
-160.376602765932
 30
0.0
 10
100.6220595260774
 20
-160.376602765932
 30
0.0
 10
100.6220595260774
 20
-160.376602765932
 30
0.0
 10
104.1266026025051
 20
-160.376602765932
 30
0.0
 10
104.1266026025051
 20
-160.376602765932
 30
0.0
  0
POLYLINE
  5
60
330
1F
100
AcDbEntity
  8
LAYER_1
 62
     7
100
AcDb2dPolyline
 66
     1
 10
0.0
 20
0.0
 30
0.0
  0
VERTEX
  5
61
330
60
100
AcDbEntity
  8
LAYER_1
 62
     7
100
AcDbVertex
100
AcDb2dVertex
 10
107.6263892567377
 20
-158.8634643832111
 30
0.0
  0
VERTEX
  5
62
330
60
100
AcDbEntity
  8
LAYER_1
 62
     7
100
AcDbVertex
100
AcDb2dVertex
 10
107.6263892567377
 20
-157.3503260004895
 30
0.0
  0
SEQEND
  5
63
330
60
100
AcDbEntity
  8
LAYER_1
 62
     7
  0
SPLINE
  5
64
330
1F
100
AcDbEntity
  8
LAYER_1
 62
     7
100
AcDbSpline
210
0.0
220
0.0
230
1.0
 70
     8
 71
     3
 72
    14
 73
    10
 74
     0
 42
0.0000000001
 43
0.0000000001
 12
1.0
 22
0.0
 32
0.0
 13
1.0
 23
0.0
 33
0.0
 40
0.0
 40
0.0
 40
0.0
 40
0.0
 40
1.0
 40
1.0
 40
1.0
 40
2.0
 40
2.0
 40
2.0
 40
3.0
 40
3.0
 40
3.0
 40
3.0
 10
116.2601466292647
 20
-157.3503260004895
 30
0.0
 10
116.2601466292647
 20
-157.3503260004895
 30
0.0
 10
116.2601466292647
 20
-158.3087369269273
 30
0.0
 10
116.2601466292647
 20
-158.3087369269273
 30
0.0
 10
116.2601466292647
 20
-159.4512060532171
 30
0.0
 10
115.3339924110935
 20
-160.3773602713883
 30
0.0
 10
114.1915232848037
 20
-160.3773602713883
 30
0.0
 10
114.1915232848037
 20
-160.3773602713883
 30
0.0
 10
111.125418405514
 20
-160.3773602713883
 30
0.0
 10
111.125418405514
 20
-160.3773602713883
 30
0.0
  0
SPLINE
  5
65
330
1F
100
AcDbEntity
  8
LAYER_1
 62
     7
100
AcDbSpline
210
0.0
220
0.0
230
1.0
 70
    11
 71
     3
 72
    17
 73
    13
 74
     0
 42
0.0000000001
 43
0.0000000001
 12
1.0
 22
0.0
 32
0.0
 13
1.0
 23
0.0
 33
0.0
 40
0.0
 40
0.0
 40
0.0
 40
0.0
 40
1.0
 40
1.0
 40
1.0
 40
2.0
 40
2.0
 40
2.0
 40
3.0
 40
3.0
 40
3.0
 40
4.0
 40
4.0
 40
4.0
 40
4.0
 10
112.5763892555002
 20
-181.3763894207895
 30
0.0
 10
112.5763892555002
 20
-184.1101989316155
 30
0.0
 10
110.3601987675646
 20
-186.3263894195517
 30
0.0
 10
107.626389256738
 20
-186.3263894195517
 30
0.0
 10
104.8925797459114
 20
-186.3263894195517
 30
0.0
 10
102.6763892579755
 20
-184.1101989316155
 30
0.0
 10
102.6763892579755
 20
-181.3763894207895
 30
0.0
 10
102.6763892579755
 20
-178.6425799099629
 30
0.0
 10
104.8925797459114
 20
-176.4263894220267
 30
0.0
 10
107.626389256738
 20
-176.4263894220267
 30
0.0
 10
110.3601987675646
 20
-176.4263894220267
 30
0.0
 10
112.5763892555002
 20
-178.6425799099629
 30
0.0
 10
112.5763892555002
 20
-181.3763894207895
 30
0.0
  0
SPLINE
  5
66
330
1F
100
AcDbEntity
  8
LAYER_1
 62
     7
100
AcDbSpline
210
0.0
220
0.0
230
1.0
 70
     8
 71
     3
 72
    14
 73
    10
 74
     0
 42
0.0000000001
 43
0.0000000001
 12
1.0
 22
0.0
 32
0.0
 13
1.0
 23
0.0
 33
0.0
 40
0.0
 40
0.0
 40
0.0
 40
0.0
 40
1.0
 40
1.0
 40
1.0
 40
2.0
 40
2.0
 40
2.0
 40
3.0
 40
3.0
 40
3.0
 40
3.0
 10
97.74968911755198
 20
-175.2589861267307
 30
0.0
 10
97.74968911755198
 20
-175.2589861267307
 30
0.0
 10
97.74968911755198
 20
-175.301628997262
 30
0.0
 10
97.74968911755198
 20
-175.301628997262
 30
0.0
 10
97.74968911755198
 20
-176.2191232609552
 30
0.0
 10
98.49346517496488
 20
-176.9628993183681
 30
0.0
 10
99.41095943865813
 20
-176.9628993183681
 30
0.0
 10
99.41095943865813
 20
-176.9628993183681
 30
0.0
 10
105.379335734688
 20
-176.9628993183681
 30
0.0
 10
105.379335734688
 20
-176.9628993183681
 30
0.0
  0
SPLINE
  5
67
330
1F
100
AcDbEntity
  8
LAYER_1
 62
     7
100
AcDbSpline
210
0.0
220
0.0
230
1.0
 70
     8
 71
     3
 72
    14
 73
    10
 74
     0
 42
0.0000000001
 43
0.0000000001
 12
1.0
 22
0.0
 32
0.0
 13
1.0
 23
0.0
 33
0.0
 40
0.0
 40
0.0
 40
0.0
 40
0.0
 40
1.0
 40
1.0
 40
1.0
 40
2.0
 40
2.0
 40
2.0
 40
3.0
 40
3.0
 40
3.0
 40
3.0
 10
117.4955762848945
 20
-175.258986126768
 30
0.0
 10
117.4955762848945
 20
-175.258986126768
 30
0.0
 10
117.4955762848932
 20
-175.3016289972992
 30
0.0
 10
117.4955762848932
 20
-175.3016289972992
 30
0.0
 10
117.4955762848521
 20
-176.2191232609924
 30
0.0
 10
116.7518002274059
 20
-176.9628993183719
 30
0.0
 10
115.8343059637126
 20
-176.9628993183302
 30
0.0
 10
115.8343059637126
 20
-176.9628993183302
 30
0.0
 10
109.8659296676824
 20
-176.9628993180626
 30
0.0
 10
109.8659296676824
 20
-176.9628993180626
 30
0.0
  0
SPLINE
  5
68
330
1F
100
AcDbEntity
  8
LAYER_1
 62
     7
100
AcDbSpline
210
0.0
220
0.0
230
1.0
 70
     8
 71
     3
 72
    20
 73
    16
 74
     0
 42
0.0000000001
 43
0.0000000001
 12
1.0
 22
0.0
 32
0.0
 13
1.0
 23
0.0
 33
0.0
 40
0.0
 40
0.0
 40
0.0
 40
0.0
 40
1.0
 40
1.0
 40
1.0
 40
2.0
 40
2.0
 40
2.0
 40
3.0
 40
3.0
 40
3.0
 40
4.0
 40
4.0
 40
4.0
 40
5.0
 40
5.0
 40
5.0
 40
5.0
 10
99.54989336546784
 20
-130.0886028127472
 30
0.0
 10
99.54989336546784
 20
-130.0886028127472
 30
0.0
 10
95.84403536269092
 20
-130.0886028127472
 30
0.0
 10
95.84403536269092
 20
-130.0886028127472
 30
0.0
 10
95.23281307823756
 20
-130.0886028127472
 30
0.0
 10
94.73731951612692
 20
-129.5931092506366
 30
0.0
 10
94.73731951612692
 20
-128.9818869661832
 30
0.0
 10
94.73731951612692
 20
-128.9818869661832
 30
0.0
 10
94.73731951612692
 20
-126.0326137505849
 30
0.0
 10
94.73731951612692
 20
-126.0326137505849
 30
0.0
 10
94.73731951612692
 20
-125.4213914661315
 30
0.0
 10
95.23281307823756
 20
-124.9258979040209
 30
0.0
 10
95.84403536269092
 20
-124.9258979040209
 30
0.0
 10
95.84403536269092
 20
-124.9258979040209
 30
0.0
 10
95.87363637048479
 20
-124.9258979040209
 30
0.0
 10
95.87363637048479
 20
-124.9258979040209
 30
0.0
  0
SPLINE
  5
69
330
1F
100
AcDbEntity
  8
LAYER_1
 62
     7
100
AcDbSpline
210
0.0
220
0.0
230
1.0
 70
     8
 71
     3
 72
    26
 73
    22
 74
     0
 42
0.0000000001
 43
0.0000000001
 12
1.0
 22
0.0
 32
0.0
 13
1.0
 23
0.0
 33
0.0
 40
0.0
 40
0.0
 40
0.0
 40
0.0
 40
1.0
 40
1.0
 40
1.0
 40
2.0
 40
2.0
 40
2.0
 40
3.0
 40
3.0
 40
3.0
 40
4.0
 40
4.0
 40
4.0
 40
5.0
 40
5.0
 40
5.0
 40
6.0
 40
6.0
 40
6.0
 40
7.0
 40
7.0
 40
7.0
 40
7.0
 10
95.87363637048479
 20
-122.3008162053304
 30
0.0
 10
95.87363637048479
 20
-122.3008162053304
 30
0.0
 10
95.16294876155405
 20
-122.3008162053304
 30
0.0
 10
95.16294876155405
 20
-122.3008162053304
 30
0.0
 10
95.16294876155405
 20
-122.3008162053304
 30
0.0
 10
95.16808081510561
 20
-122.3008162053304
 30
0.0
 10
95.16808081510561
 20
-122.3008162053304
 30
0.0
 10
95.16808081510561
 20
-122.3008162053304
 30
0.0
 10
95.16294876155405
 20
-122.3008162053304
 30
0.0
 10
95.16294876155405
 20
-122.3008162053304
 30
0.0
 10
94.51366665795216
 20
-122.3008162053317
 30
0.0
 10
93.98731951631443
 20
-122.8271633469691
 30
0.0
 10
93.98731951631443
 20
-123.47644545057
 30
0.0
 10
93.98731951631443
 20
-123.47644545057
 30
0.0
 10
93.98731951631443
 20
-136.7007601749243
 30
0.0
 10
93.98731951631443
 20
-136.7007601749243
 30
0.0
 10
93.98731951631443
 20
-137.3500422785249
 30
0.0
 10
94.51366665795312
 20
-137.8763894201636
 30
0.0
 10
95.16294876155405
 20
-137.8763894201639
 30
0.0
 10
95.16294876155405
 20
-137.8763894201639
 30
0.0
 10
96.2552070126957
 20
-137.8763894201639
 30
0.0
 10
96.2552070126957
 20
-137.8763894201639
 30
0.0
  0
SPLINE
  5
6A
330
1F
100
AcDbEntity
  8
LAYER_1
 62
     7
100
AcDbSpline
210
0.0
220
0.0
230
1.0
 70
     8
 71
     3
 72
    23
 73
    19
 74
     0
 42
0.0000000001
 43
0.0000000001
 12
1.0
 22
0.0
 32
0.0
 13
1.0
 23
0.0
 33
0.0
 40
0.0
 40
0.0
 40
0.0
 40
0.0
 40
1.0
 40
1.0
 40
1.0
 40
2.0
 40
2.0
 40
2.0
 40
3.0
 40
3.0
 40
3.0
 40
4.0
 40
4.0
 40
4.0
 40
5.0
 40
5.0
 40
5.0
 40
6.0
 40
6.0
 40
6.0
 40
6.0
 10
95.87363637048479
 20
-119.8209959445123
 30
0.0
 10
95.87363637048479
 20
-119.8209959445123
 30
0.0
 10
94.89633944506258
 20
-119.8209959445123
 30
0.0
 10
94.89633944506258
 20
-119.8209959445123
 30
0.0
 10
94.89633944506258
 20
-119.8209959445123
 30
0.0
 10
94.82167016686894
 20
-119.8209959445123
 30
0.0
 10
94.82167016686894
 20
-119.8209959445123
 30
0.0
 10
93.94665746428666
 20
-119.8209959445123
 30
0.0
 10
93.23731951650194
 20
-120.530333892297
 30
0.0
 10
93.23731951650194
 20
-121.4053465948793
 30
0.0
 10
93.23731951650194
 20
-121.4053465948793
 30
0.0
 10
93.23731951650194
 20
-144.3214492091947
 30
0.0
 10
93.23731951650194
 20
-144.3214492091947
 30
0.0
 10
93.23731951650194
 20
-145.196461911777
 30
0.0
 10
93.94665746428666
 20
-145.9057998595614
 30
0.0
 10
94.82167016686861
 20
-145.9057998595614
 30
0.0
 10
94.82167016686861
 20
-145.9057998595614
 30
0.0
 10
99.42019565308232
 20
-145.9057998595614
 30
0.0
 10
99.42019565308232
 20
-145.9057998595614
 30
0.0
  0
POLYLINE
  5
6B
330
1F
100
AcDbEntity
  8
LAYER_1
 62
     7
100
AcDb2dPolyline
 66
     1
 10
0.0
 20
0.0
 30
0.0
  0
VERTEX
  5
6C
330
6B
100
AcDbEntity
  8
LAYER_1
 62
     7
100
AcDbVertex
100
AcDb2dVertex
 10
107.626389256738
 20
-126.4861927149188
 30
0.0
  0
VERTEX
  5
6D
330
6B
100
AcDbEntity
  8
LAYER_1
 62
     7
100
AcDbVertex
100
AcDb2dVertex
 10
107.6263892586525
 20
-123.6600482311279
 30
0.0
  0
SEQEND
  5
6E
330
6B
100
AcDbEntity
  8
LAYER_1
 62
     7
  0
SPLINE
  5
6F
330
1F
100
AcDbEntity
  8
LAYER_1
 62
     7
100
AcDbSpline
210
0.0
220
0.0
230
1.0
 70
     8
 71
     3
 72
    20
 73
    16
 74
     0
 42
0.0000000001
 43
0.0000000001
 12
1.0
 22
0.0
 32
0.0
 13
1.0
 23
0.0
 33
0.0
 40
0.0
 40
0.0
 40
0.0
 40
0.0
 40
1.0
 40
1.0
 40
1.0
 40
2.0
 40
2.0
 40
2.0
 40
3.0
 40
3.0
 40
3.0
 40
4.0
 40
4.0
 40
4.0
 40
5.0
 40
5.0
 40
5.0
 40
5.0
 10
115.7357451072482
 20
-130.0886028125585
 30
0.0
 10
115.7357451072482
 20
-130.0886028125585
 30
0.0
 10
119.4416031100252
 20
-130.0886028127247
 30
0.0
 10
119.4416031100252
 20
-130.0886028127247
 30
0.0
 10
120.0528253944785
 20
-130.0886028127523
 30
0.0
 10
120.5483189566116
 20
-129.5931092506638
 30
0.0
 10
120.5483189566392
 20
-128.9818869662105
 30
0.0
 10
120.5483189566392
 20
-128.9818869662105
 30
0.0
 10
120.5483189567714
 20
-126.0326137506122
 30
0.0
 10
120.5483189567714
 20
-126.0326137506122
 30
0.0
 10
120.5483189567983
 20
-125.4213914661588
 30
0.0
 10
120.0528253947102
 20
-124.925897904026
 30
0.0
 10
119.4416031102568
 20
-124.9258979039984
 30
0.0
 10
119.4416031102568
 20
-124.9258979039984
 30
0.0
 10
119.4120021024633
 20
-124.9258979039972
 30
0.0
 10
119.4120021024633
 20
-124.9258979039972
 30
0.0
  0
INSERT
  5
71
330
1F
100
AcDbEntity
  8
LAYER_1
100
AcDbBlockReference
  2
BLOCK_2
 10
0.0
 20
0.0
 30
0.0
  0
INSERT
  5
76
330
1F
100
AcDbEntity
  8
LAYER_1
100
AcDbBlockReference
  2
BLOCK_3
 10
0.0
 20
0.0
 30
0.0
  0
INSERT
  5
7B
330
1F
100
AcDbEntity
  8
LAYER_1
100
AcDbBlockReference
  2
BLOCK_4
 10
0.0
 20
0.0
 30
0.0
  0
POLYLINE
  5
7F
330
1F
100
AcDbEntity
  8
LAYER_1
 62
     7
100
AcDb2dPolyline
 66
     1
 10
0.0
 20
0.0
 30
0.0
  0
VERTEX
  5
80
330
7F
100
AcDbEntity
  8
LAYER_1
 62
     7
100
AcDbVertex
100
AcDb2dVertex
 10
120.8240689333785
 20
-118.3763881684664
 30
0.0
  0
VERTEX
  5
81
330
7F
100
AcDbEntity
  8
LAYER_1
 62
     7
100
AcDbVertex
100
AcDb2dVertex
 10
95.32406893337885
 20
-118.3763881684664
 30
0.0
  0
VERTEX
  5
82
330
7F
100
AcDbEntity
  8
LAYER_1
 62
     7
100
AcDbVertex
100
AcDb2dVertex
 10
95.32406893337885
 20
-96.87638816846659
 30
0.0
  0
VERTEX
  5
83
330
7F
100
AcDbEntity
  8
LAYER_1
 62
     7
100
AcDbVertex
100
AcDb2dVertex
 10
120.8240689333785
 20
-96.87638816846659
 30
0.0
  0
VERTEX
  5
84
330
7F
100
AcDbEntity
  8
LAYER_1
 62
     7
100
AcDbVertex
100
AcDb2dVertex
 10
120.8240689333785
 20
-118.3763881684664
 30
0.0
  0
SEQEND
  5
85
330
7F
100
AcDbEntity
  8
LAYER_1
 62
     7
  0
POLYLINE
  5
86
330
1F
100
AcDbEntity
  8
LAYER_1
 62
     7
100
AcDb2dPolyline
 66
     1
 10
0.0
 20
0.0
 30
0.0
  0
VERTEX
  5
87
330
86
100
AcDbEntity
  8
LAYER_1
 62
     7
100
AcDbVertex
100
AcDb2dVertex
 10
123.6263890928249
 20
-189.8763895989778
 30
0.0
  0
VERTEX
  5
88
330
86
100
AcDbEntity
  8
LAYER_1
 62
     7
100
AcDbVertex
100
AcDb2dVertex
 10
92.62638863088937
 20
-189.8763895989778
 30
0.0
  0
VERTEX
  5
89
330
86
100
AcDbEntity
  8
LAYER_1
 62
     7
100
AcDbVertex
100
AcDb2dVertex
 10
92.62638863088937
 20
-89.87638810886149
 30
0.0
  0
VERTEX
  5
8A
330
86
100
AcDbEntity
  8
LAYER_1
 62
     7
100
AcDbVertex
100
AcDb2dVertex
 10
123.6263890928249
 20
-89.87638810886149
 30
0.0
  0
VERTEX
  5
8B
330
86
100
AcDbEntity
  8
LAYER_1
 62
     7
100
AcDbVertex
100
AcDb2dVertex
 10
123.6263890928249
 20
-189.8763895989778
 30
0.0
  0
SEQEND
  5
8C
330
86
100
AcDbEntity
  8
LAYER_1
 62
     7
  0
ENDSEC
  0
SECTION
  2
OBJECTS
  0
DICTIONARY
  5
C
330
0
100
AcDbDictionary
  3
ACAD_GROUP
350
D
  3
ACAD_LAYOUT
350
1A
  3
ACAD_MATERIAL
350
3B
  3
ACAD_MLEADERSTYLE
350
AF
  3
ACAD_MLINESTYLE
350
17
  3
ACAD_PLOTSETTINGS
350
19
  3
ACAD_VISUALSTYLE
350
2A
  3
ACDBHEADERROUNDTRIPXREC
350
8D
  3
ACDBVARIABLEDICTIONARY
350
AD
  0
DICTIONARY
  5
D
102
{ACAD_REACTORS
330
C
102
}
330
C
100
AcDbDictionary
  0
DICTIONARY
  5
1A
102
{ACAD_REACTORS
330
C
102
}
330
C
100
AcDbDictionary
  0
DICTIONARY
  5
3B
102
{ACAD_REACTORS
330
C
102
}
330
C
100
AcDbDictionary
  3
BYBLOCK
350
3D
  3
BYLAYER
350
3C
  3
GLOBAL
350
3E
  0
DICTIONARY
  5
AF
102
{ACAD_REACTORS
330
C
102
}
330
C
100
AcDbDictionary
  0
DICTIONARY
  5
17
102
{ACAD_REACTORS
330
C
102
}
330
C
100
AcDbDictionary
  3
STANDARD
350
18
  0
DICTIONARY
  5
19
102
{ACAD_REACTORS
330
C
102
}
330
C
100
AcDbDictionary
  0
DICTIONARY
  5
2A
102
{ACAD_REACTORS
330
C
102
}
330
C
100
AcDbDictionary
  3
2DWIREFRAME
350
2F
  3
3D_HIDDEN
350
31
  3
3DWIREFRAME
350
30
  3
BASIC
350
32
  3
BRIGHTEN
350
36
  3
COLORCHANGE
350
3A
  3
CONCEPTUAL
350
34
  3
DIM
350
35
  3
FACEPATTERN
350
39
  3
FLAT
350
2B
  3
FLATWITHEDGES
350
2C
  3
GOURAUD
350
2D
  3
GOURAUDWITHEDGES
350
2E
  3
LINEPATTERN
350
38
  3
REALISTIC
350
33
  3
THICKEN
350
37
  0
DICTIONARY
  5
8D
102
{ACAD_REACTORS
330
C
102
}
330
C
100
AcDbDictionary
  3
CEPSNTYPE
350
96
  3
DIMSTYLEDATA
350
AC
  3
FINGERPRINTGUID
350
97
  3
HYPERLINKBASE
350
90
  3
INSUNITS
350
95
  3
LAYOUTDICT
350
92
  3
LWETCUNION
350
94
  3
PLOTSETDICT
350
93
  3
PSVPSCALE
350
99
  3
PUCSBASE
350
9C
  3
PUCSORGBACK
350
A2
  3
PUCSORGBOTTOM
350
9E
  3
PUCSORGFRONT
350
A1
  3
PUCSORGLEFT
350
9F
  3
PUCSORGRIGHT
350
A0
  3
PUCSORGTOP
350
9D
  3
PUCSORTHOREF
350
9A
  3
PUCSORTHOVIEW
350
9B
  3
STYLESHEET
350
91
  3
TSTACKALIGN
350
8E
  3
TSTACKSIZE
350
8F
  3
UCSBASE
350
A5
  3
UCSORGBACK
350
AB
  3
UCSORGBOTTOM
350
A7
  3
UCSORGFRONT
350
AA
  3
UCSORGLEFT
350
A8
  3
UCSORGRIGHT
350
A9
  3
UCSORGTOP
350
A6
  3
UCSORTHOREF
350
A3
  3
UCSORTHOVIEW
350
A4
  3
VERSIONGUID
350
98
  0
DICTIONARY
  5
AD
102
{ACAD_REACTORS
330
C
102
}
330
C
100
AcDbDictionary
  3
DIMASSOC
350
B0
  3
HIDETEXT
350
B1
  0
MATERIAL
  5
3D
102
{ACAD_REACTORS
330
3B
102
}
102
{ACAD_XDICTIONARY
360
B4
102
}
330
3B
100
AcDbMaterial
  1
ByBlock
  0
MATERIAL
  5
3C
102
{ACAD_REACTORS
330
3B
102
}
102
{ACAD_XDICTIONARY
360
B2
102
}
330
3B
100
AcDbMaterial
  1
ByLayer
  0
MATERIAL
  5
3E
102
{ACAD_REACTORS
330
3B
102
}
102
{ACAD_XDICTIONARY
360
B6
102
}
330
3B
100
AcDbMaterial
  1
Global
  0
MLINESTYLE
  5
18
102
{ACAD_REACTORS
330
17
102
}
330
17
100
AcDbMlineStyle
  2
Standard
 70
     0
  3

 62
   256
 51
90.0
 52
90.0
 71
     2
 49
0.5
 62
   256
  6
BYLAYER
 49
-0.5
 62
   256
  6
BYLAYER
  0
ACAD_PROXY_OBJECT
  5
2F
102
{ACAD_REACTORS
330
2A
102
}
330
2A
100
AcDbProxyObject
 90
      499
 91
      501
 93
      436
310
42CC9915DA5C99599C985B595049028333333333333E3BF0000000000000FB0107901411070040501600405405064090741402480A0340
1001
ACAD
1000
AcDbSavedByObjectVersion
1070
     0
  0
ACAD_PROXY_OBJECT
  5
31
102
{ACAD_REACTORS
330
2A
102
}
330
2A
100
AcDbProxyObject
 90
      499
 91
      501
 93
      500
310
424CD108121A5919195B90640502408333333333333E3BF0000000000000FB01079024090700405020000000000001110200405405064090740C02480A0340
1001
ACAD
1000
AcDbSavedByObjectVersion
1070
     0
  0
ACAD_PROXY_OBJECT
  5
30
102
{ACAD_REACTORS
330
2A
102
}
330
2A
100
AcDbProxyObject
 90
      499
 91
      501
 93
      436
310
42CCD915DA5C99599C985B595059028333333333333E3BF0000000000000FB0107901411070040501600405405064090741402480A0340
1001
ACAD
1000
AcDbSavedByObjectVersion
1070
     0
  0
ACAD_PROXY_OBJECT
  5
32
102
{ACAD_REACTORS
330
2A
102
}
330
2A
100
AcDbProxyObject
 90
      499
 91
      501
 93
      388
310
4150985CDA58D07406404333333333333E3BF0000000000000FB0107A41107004050150841D405064090741402480A0350
1001
ACAD
1000
AcDbSavedByObjectVersion
1070
     0
  0
ACAD_PROXY_OBJECT
  5
36
102
{ACAD_REACTORS
330
2A
102
}
330
2A
100
AcDbProxyObject
 90
      499
 91
      501
 93
      428
310
42109C9A59DA1D195B90C409028333333333333E3BF0000000000000FB010790141107004050150841D405064090741402480A029950
1001
ACAD
1000
AcDbSavedByObjectVersion
1070
     0
  0
ACAD_PROXY_OBJECT
  5
3A
102
{ACAD_REACTORS
330
2A
102
}
330
2A
100
AcDbProxyObject
 90
      499
 91
      501
 93
      452
310
42D0DBDB1BDC90DA185B99D95104090240C333333333333E3BF0000000000000FB0108901411070040501508421405064090741402480A0350
1001
ACAD
1000
AcDbSavedByObjectVersion
1070
     0
  0
ACAD_PROXY_OBJECT
  5
34
102
{ACAD_REACTORS
330
2A
102
}
330
2A
100
AcDbProxyObject
 90
      499
 91
      501
 93
      500
310
4290DBDB98D95C1D1D585B10940D028333333333333E3BF0000000000000FB0107902409070040501000000000000111010841D405064090740C02480A0340
1001
ACAD
1000
AcDbSavedByObjectVersion
1070
     0
  0
ACAD_PROXY_OBJECT
  5
35
102
{ACAD_REACTORS
330
2A
102
}
330
2A
100
AcDbProxyObject
 90
      499
 91
      501
 93
      412
310
40D11A5B50B409028333333333333E3BF0000000000000FB010790141107004050150841D405064090741402480A02677FFFFFD0
1001
ACAD
1000
AcDbSavedByObjectVersion
1070
     0
  0
ACAD_PROXY_OBJECT
  5
39
102
{ACAD_REACTORS
330
2A
102
}
330
2A
100
AcDbProxyObject
 90
      499
 91
      501
 93
      444
310
42D19858D95C185D1D195C9B90F409028333333333333E3BF0000000000000FB010790141107004050150841D405064090741402480A0350
1001
ACAD
1000
AcDbSavedByObjectVersion
1070
     0
  0
ACAD_PROXY_OBJECT
  5
2B
102
{ACAD_REACTORS
330
2A
102
}
330
2A
100
AcDbProxyObject
 90
      499
 91
      501
 93
      388
310
41119B185D240901404333333333333E3BF0000000000000F9010740A41107004050150841D405064090741402480A1B50
1001
ACAD
1000
AcDbSavedByObjectVersion
1070
     0
  0
ACAD_PROXY_OBJECT
  5
2C
102
{ACAD_REACTORS
330
2A
102
}
330
2A
100
AcDbProxyObject
 90
      499
 91
      501
 93
      476
310
43519B185D15DA5D1A115919D95CD0140901404333333333333E3BF0000000000000F9010740901411070040501600405405064090741402480A1B50
1001
ACAD
1000
AcDbSavedByObjectVersion
1070
     0
  0
ACAD_PROXY_OBJECT
  5
2D
102
{ACAD_REACTORS
330
2A
102
}
330
2A
100
AcDbProxyObject
 90
      499
 91
      501
 93
      412
310
41D1DBDD5C985D5910240902404333333333333E3BF0000000000000F9010740A411070040501641D405064090741402480A1B50
1001
ACAD
1000
AcDbSavedByObjectVersion
1070
     0
  0
ACAD_PROXY_OBJECT
  5
2E
102
{ACAD_REACTORS
330
2A
102
}
330
2A
100
AcDbProxyObject
 90
      499
 91
      501
 93
      500
310
4411DBDD5C985D5915DA5D1A115919D95CD0340902404333333333333E3BF0000000000000F9010740901411070040501600405405064090741402480A1B50
1001
ACAD
1000
AcDbSavedByObjectVersion
1070
     0
  0
ACAD_PROXY_OBJECT
  5
38
102
{ACAD_REACTORS
330
2A
102
}
330
2A
100
AcDbProxyObject
 90
      499
 91
      501
 93
      444
310
42D31A5B995C185D1D195C9B90E409028333333333333E3BF0000000000000FB010790141107004050750841D405064090741402483A0350
1001
ACAD
1000
AcDbSavedByObjectVersion
1070
     0
  0
ACAD_PROXY_OBJECT
  5
33
102
{ACAD_REACTORS
330
2A
102
}
330
2A
100
AcDbProxyObject
 90
      499
 91
      501
 93
      420
310
425499585B1A5CDD1A58D08409028333333333333E3BF0000000000000FB01079019070040501508421405064090741402480A1B40
1001
ACAD
1000
AcDbSavedByObjectVersion
1070
     0
  0
ACAD_PROXY_OBJECT
  5
37
102
{ACAD_REACTORS
330
2A
102
}
330
2A
100
AcDbProxyObject
 90
      499
 91
      501
 93
      412
310
41D51A1A58DAD95B90D409028333333333333E3BF0000000000000FB010790141107004050150C41D405064090741402480A0350
1001
ACAD
1000
AcDbSavedByObjectVersion
1070
     0
  0
XRECORD
  5
96
102
{ACAD_REACTORS
330
8D
102
}
330
8D
100
AcDbXrecord
 90
        0
  0
XRECORD
  5
AC
102
{ACAD_REACTORS
330
8D
102
}
330
8D
100
AcDbXrecord
1000
DSTYLE
1002
{
1070
   340
340
11
1002
}
  0
XRECORD
  5
97
102
{ACAD_REACTORS
330
8D
102
}
330
8D
100
AcDbXrecord
  1
{D8FA9D94-E92F-4935-B02B-D759B4FCB62E}
  0
XRECORD
  5
90
102
{ACAD_REACTORS
330
8D
102
}
330
8D
100
AcDbXrecord
  1

  0
XRECORD
  5
95
102
{ACAD_REACTORS
330
8D
102
}
330
8D
100
AcDbXrecord
 90
        4
  0
XRECORD
  5
92
102
{ACAD_REACTORS
330
8D
102
}
330
8D
100
AcDbXrecord
340
1A
  0
XRECORD
  5
94
102
{ACAD_REACTORS
330
8D
102
}
330
8D
100
AcDbXrecord
 90
    10269
  0
XRECORD
  5
93
102
{ACAD_REACTORS
330
8D
102
}
330
8D
100
AcDbXrecord
340
19
  0
XRECORD
  5
99
102
{ACAD_REACTORS
330
8D
102
}
330
8D
100
AcDbXrecord
 40
0.0
  0
XRECORD
  5
9C
102
{ACAD_REACTORS
330
8D
102
}
330
8D
100
AcDbXrecord
340
0
  0
XRECORD
  5
A2
102
{ACAD_REACTORS
330
8D
102
}
330
8D
100
AcDbXrecord
 10
0.0
 20
0.0
 30
0.0
  0
XRECORD
  5
9E
102
{ACAD_REACTORS
330
8D
102
}
330
8D
100
AcDbXrecord
 10
0.0
 20
0.0
 30
0.0
  0
XRECORD
  5
A1
102
{ACAD_REACTORS
330
8D
102
}
330
8D
100
AcDbXrecord
 10
0.0
 20
0.0
 30
0.0
  0
XRECORD
  5
9F
102
{ACAD_REACTORS
330
8D
102
}
330
8D
100
AcDbXrecord
 10
0.0
 20
0.0
 30
0.0
  0
XRECORD
  5
A0
102
{ACAD_REACTORS
330
8D
102
}
330
8D
100
AcDbXrecord
 10
0.0
 20
0.0
 30
0.0
  0
XRECORD
  5
9D
102
{ACAD_REACTORS
330
8D
102
}
330
8D
100
AcDbXrecord
 10
0.0
 20
0.0
 30
0.0
  0
XRECORD
  5
9A
102
{ACAD_REACTORS
330
8D
102
}
330
8D
100
AcDbXrecord
340
0
  0
XRECORD
  5
9B
102
{ACAD_REACTORS
330
8D
102
}
330
8D
100
AcDbXrecord
 70
     0
  0
XRECORD
  5
91
102
{ACAD_REACTORS
330
8D
102
}
330
8D
100
AcDbXrecord
  1

  0
XRECORD
  5
8E
102
{ACAD_REACTORS
330
8D
102
}
330
8D
100
AcDbXrecord
 90
        1
  0
XRECORD
  5
8F
102
{ACAD_REACTORS
330
8D
102
}
330
8D
100
AcDbXrecord
 90
       70
  0
XRECORD
  5
A5
102
{ACAD_REACTORS
330
8D
102
}
330
8D
100
AcDbXrecord
340
0
  0
XRECORD
  5
AB
102
{ACAD_REACTORS
330
8D
102
}
330
8D
100
AcDbXrecord
 10
0.0
 20
0.0
 30
0.0
  0
XRECORD
  5
A7
102
{ACAD_REACTORS
330
8D
102
}
330
8D
100
AcDbXrecord
 10
0.0
 20
0.0
 30
0.0
  0
XRECORD
  5
AA
102
{ACAD_REACTORS
330
8D
102
}
330
8D
100
AcDbXrecord
 10
0.0
 20
0.0
 30
0.0
  0
XRECORD
  5
A8
102
{ACAD_REACTORS
330
8D
102
}
330
8D
100
AcDbXrecord
 10
0.0
 20
0.0
 30
0.0
  0
XRECORD
  5
A9
102
{ACAD_REACTORS
330
8D
102
}
330
8D
100
AcDbXrecord
 10
0.0
 20
0.0
 30
0.0
  0
XRECORD
  5
A6
102
{ACAD_REACTORS
330
8D
102
}
330
8D
100
AcDbXrecord
 10
0.0
 20
0.0
 30
0.0
  0
XRECORD
  5
A3
102
{ACAD_REACTORS
330
8D
102
}
330
8D
100
AcDbXrecord
340
0
  0
XRECORD
  5
A4
102
{ACAD_REACTORS
330
8D
102
}
330
8D
100
AcDbXrecord
 70
     0
  0
XRECORD
  5
98
102
{ACAD_REACTORS
330
8D
102
}
330
8D
100
AcDbXrecord
  1
{FAEB1C32-E019-11D5-929B-00C0DF256EC4}
  0
DICTIONARYVAR
  5
B0
102
{ACAD_REACTORS
330
AD
102
}
330
AD
100
DictionaryVariables
280
     0
  1
2
  0
DICTIONARYVAR
  5
B1
102
{ACAD_REACTORS
330
AD
102
}
330
AD
100
DictionaryVariables
280
     0
  1
1
  0
DICTIONARY
  5
B4
330
3D
100
AcDbDictionary
280
     1
  3
ACAD_XREC_ROUNDTRIP
360
B5
  0
DICTIONARY
  5
B2
330
3C
100
AcDbDictionary
280
     1
  3
ACAD_XREC_ROUNDTRIP
360
B3
  0
DICTIONARY
  5
B6
330
3E
100
AcDbDictionary
280
     1
  3
ACAD_XREC_ROUNDTRIP
360
B7
  0
XRECORD
  5
B5
102
{ACAD_REACTORS
330
B4
102
}
330
B4
100
AcDbXrecord
102
MATERIAL
148
0.0
149
0.0
149
0.0
 93
        0
 94
      127
282
     0
 72
     1
 77
     1
171
     1
175
     1
179
     1
273
     0
  0
XRECORD
  5
B3
102
{ACAD_REACTORS
330
B2
102
}
330
B2
100
AcDbXrecord
102
MATERIAL
148
0.0
149
0.0
149
0.0
 93
        0
 94
      127
282
     0
 72
     1
 77
     1
171
     1
175
     1
179
     1
273
     0
  0
XRECORD
  5
B7
102
{ACAD_REACTORS
330
B6
102
}
330
B6
100
AcDbXrecord
102
MATERIAL
148
0.0
149
0.0
149
0.0
 93
        0
 94
      127
282
     0
 72
     1
 77
     1
171
     1
175
     1
179
     1
273
     0
  0
ENDSEC
  0
EOF
